<svg width="32" height="32" viewBox="0 0 32 32" fill="none" xmlns="http://www.w3.org/2000/svg">
  <!-- Background circle -->
  <circle cx="16" cy="16" r="15" fill="#0a0a0a" stroke="#00ff41" stroke-width="1.5"/>
  
  <!-- Terminal/CLI symbol -->
  <rect x="8" y="10" width="16" height="12" rx="1" fill="none" stroke="#00ff41" stroke-width="2"/>
  
  <!-- Terminal window controls -->
  <circle cx="11" cy="12" r="1.5" fill="#ff4444"/>
  <circle cx="14" cy="12" r="1.5" fill="#ffaa00"/>
  <circle cx="17" cy="12" r="1.5" fill="#00ff41"/>
  
  <!-- Command line text -->
  <rect x="10" y="16" width="8" height="1.5" fill="#00ff41"/>
  <rect x="10" y="18" width="6" height="1.5" fill="#00ff41"/>
  <rect x="10" y="20" width="10" height="1.5" fill="#00ff41"/>
  
  <!-- Cursor -->
  <rect x="18" y="16" width="1.5" height="1.5" fill="#00ffff"/>
  
  <!-- Center dot -->
  <circle cx="16" cy="16" r="1" fill="#00ff41"/>
  
  <!-- Corner accents -->
  <path d="M6 6 L10 6 L10 10 L6 10 Z" fill="none" stroke="#00ff41" stroke-width="1"/>
  <path d="M22 6 L26 6 L26 10 L22 10 Z" fill="none" stroke="#00ff41" stroke-width="1"/>
  <path d="M6 22 L10 22 L10 26 L6 26 Z" fill="none" stroke="#00ff41" stroke-width="1"/>
  <path d="M22 22 L26 22 L26 26 L22 26 Z" fill="none" stroke="#00ff41" stroke-width="1"/>
</svg>
